<svg xmlns="http://www.w3.org/2000/svg" width="306" height="202" viewBox="0 0 306 202">
  <g id="Group_298" data-name="Group 298" transform="translate(-1494 -2695)">
    <g id="Group_276" data-name="Group 276" transform="translate(1545 2710)">
      <path id="Path_535" data-name="Path 535" d="M181.19,149.95c0,10.57-5.61,19.21-12.46,19.21H26.78c-6.85,0-12.46-8.64-12.46-19.21" fill="none" stroke="#5596a5" stroke-miterlimit="10" stroke-width="2"/>
      <path id="Path_536" data-name="Path 536" d="M159.85,151.66H35.65a5.036,5.036,0,0,1-5.02-5.02V114.46a5.036,5.036,0,0,1,5.02-5.02h124.2a5.036,5.036,0,0,1,5.02,5.02v32.18A5.036,5.036,0,0,1,159.85,151.66Z" fill="none" stroke="#5596a5" stroke-miterlimit="10" stroke-width="2"/>
      <g id="Group_272" data-name="Group 272">
        <circle id="Ellipse_44" data-name="Ellipse 44" cx="3.57" cy="3.57" r="3.57" transform="translate(38.41 115.52)" fill="none" stroke="#5596a5" stroke-miterlimit="10" stroke-width="2"/>
        <circle id="Ellipse_45" data-name="Ellipse 45" cx="3.57" cy="3.57" r="3.57" transform="translate(50.8 115.52)" fill="none" stroke="#5596a5" stroke-miterlimit="10" stroke-width="2"/>
        <circle id="Ellipse_46" data-name="Ellipse 46" cx="3.57" cy="3.57" r="3.57" transform="translate(63.2 115.52)" fill="none" stroke="#5596a5" stroke-miterlimit="10" stroke-width="2"/>
        <circle id="Ellipse_47" data-name="Ellipse 47" cx="3.57" cy="3.57" r="3.57" transform="translate(75.59 115.52)" fill="none" stroke="#5596a5" stroke-miterlimit="10" stroke-width="2"/>
        <circle id="Ellipse_48" data-name="Ellipse 48" cx="3.57" cy="3.57" r="3.57" transform="translate(87.99 115.52)" fill="none" stroke="#5596a5" stroke-miterlimit="10" stroke-width="2"/>
        <circle id="Ellipse_49" data-name="Ellipse 49" cx="3.57" cy="3.57" r="3.57" transform="translate(100.38 115.52)" fill="none" stroke="#5596a5" stroke-miterlimit="10" stroke-width="2"/>
        <circle id="Ellipse_50" data-name="Ellipse 50" cx="3.57" cy="3.57" r="3.57" transform="translate(112.77 115.52)" fill="none" stroke="#5596a5" stroke-miterlimit="10" stroke-width="2"/>
        <circle id="Ellipse_51" data-name="Ellipse 51" cx="3.57" cy="3.57" r="3.57" transform="translate(125.17 115.52)" fill="none" stroke="#5596a5" stroke-miterlimit="10" stroke-width="2"/>
        <circle id="Ellipse_52" data-name="Ellipse 52" cx="3.57" cy="3.57" r="3.57" transform="translate(137.56 115.52)" fill="none" stroke="#5596a5" stroke-miterlimit="10" stroke-width="2"/>
        <circle id="Ellipse_53" data-name="Ellipse 53" cx="3.57" cy="3.57" r="3.57" transform="translate(149.96 115.52)" fill="none" stroke="#5596a5" stroke-miterlimit="10" stroke-width="2"/>
      </g>
      <g id="Group_273" data-name="Group 273">
        <circle id="Ellipse_54" data-name="Ellipse 54" cx="3.57" cy="3.57" r="3.57" transform="translate(44.6 127.6)" fill="none" stroke="#5596a5" stroke-miterlimit="10" stroke-width="2"/>
        <circle id="Ellipse_55" data-name="Ellipse 55" cx="3.57" cy="3.57" r="3.57" transform="translate(57 127.6)" fill="none" stroke="#5596a5" stroke-miterlimit="10" stroke-width="2"/>
        <circle id="Ellipse_56" data-name="Ellipse 56" cx="3.57" cy="3.57" r="3.57" transform="translate(69.39 127.6)" fill="none" stroke="#5596a5" stroke-miterlimit="10" stroke-width="2"/>
        <circle id="Ellipse_57" data-name="Ellipse 57" cx="3.57" cy="3.57" r="3.57" transform="translate(81.79 127.6)" fill="none" stroke="#5596a5" stroke-miterlimit="10" stroke-width="2"/>
        <circle id="Ellipse_58" data-name="Ellipse 58" cx="3.57" cy="3.57" r="3.57" transform="translate(94.18 127.6)" fill="none" stroke="#5596a5" stroke-miterlimit="10" stroke-width="2"/>
        <circle id="Ellipse_59" data-name="Ellipse 59" cx="3.57" cy="3.57" r="3.57" transform="translate(106.58 127.6)" fill="none" stroke="#5596a5" stroke-miterlimit="10" stroke-width="2"/>
        <circle id="Ellipse_60" data-name="Ellipse 60" cx="3.57" cy="3.57" r="3.57" transform="translate(118.97 127.6)" fill="none" stroke="#5596a5" stroke-miterlimit="10" stroke-width="2"/>
        <circle id="Ellipse_61" data-name="Ellipse 61" cx="3.57" cy="3.57" r="3.57" transform="translate(131.37 127.6)" fill="none" stroke="#5596a5" stroke-miterlimit="10" stroke-width="2"/>
        <circle id="Ellipse_62" data-name="Ellipse 62" cx="3.57" cy="3.57" r="3.57" transform="translate(143.76 127.6)" fill="none" stroke="#5596a5" stroke-miterlimit="10" stroke-width="2"/>
      </g>
      <g id="Group_274" data-name="Group 274">
        <circle id="Ellipse_63" data-name="Ellipse 63" cx="3.57" cy="3.57" r="3.57" transform="translate(50.8 139.68)" fill="none" stroke="#5596a5" stroke-miterlimit="10" stroke-width="2"/>
        <circle id="Ellipse_64" data-name="Ellipse 64" cx="3.57" cy="3.57" r="3.57" transform="translate(63.2 139.68)" fill="none" stroke="#5596a5" stroke-miterlimit="10" stroke-width="2"/>
        <circle id="Ellipse_65" data-name="Ellipse 65" cx="3.57" cy="3.57" r="3.57" transform="translate(75.59 139.68)" fill="none" stroke="#5596a5" stroke-miterlimit="10" stroke-width="2"/>
        <circle id="Ellipse_66" data-name="Ellipse 66" cx="3.57" cy="3.57" r="3.57" transform="translate(87.99 139.68)" fill="none" stroke="#5596a5" stroke-miterlimit="10" stroke-width="2"/>
        <circle id="Ellipse_67" data-name="Ellipse 67" cx="3.57" cy="3.57" r="3.57" transform="translate(100.38 139.68)" fill="none" stroke="#5596a5" stroke-miterlimit="10" stroke-width="2"/>
        <circle id="Ellipse_68" data-name="Ellipse 68" cx="3.57" cy="3.57" r="3.57" transform="translate(112.77 139.68)" fill="none" stroke="#5596a5" stroke-miterlimit="10" stroke-width="2"/>
        <circle id="Ellipse_69" data-name="Ellipse 69" cx="3.57" cy="3.57" r="3.57" transform="translate(125.17 139.68)" fill="none" stroke="#5596a5" stroke-miterlimit="10" stroke-width="2"/>
        <circle id="Ellipse_70" data-name="Ellipse 70" cx="3.57" cy="3.57" r="3.57" transform="translate(137.56 139.68)" fill="none" stroke="#5596a5" stroke-miterlimit="10" stroke-width="2"/>
      </g>
      <g id="Group_275" data-name="Group 275">
        <path id="Path_537" data-name="Path 537" d="M163.31,104.03H130.78a1.562,1.562,0,0,1-1.56-1.56h0a1.562,1.562,0,0,1,1.56-1.56h32.53a1.562,1.562,0,0,1,1.56,1.56h0A1.562,1.562,0,0,1,163.31,104.03Z" fill="none" stroke="#5596a5" stroke-miterlimit="10" stroke-width="2"/>
        <path id="Path_538" data-name="Path 538" d="M34.56,104.03H31.19a.555.555,0,0,1-.55-.55v-2.02a.555.555,0,0,1,.55-.55h3.37a.555.555,0,0,1,.55.55v2.02A.555.555,0,0,1,34.56,104.03Z" fill="none" stroke="#5596a5" stroke-miterlimit="10" stroke-width="2"/>
      </g>
      <path id="Path_539" data-name="Path 539" d="M181.19,84.1V73.08a12.5,12.5,0,0,0-12.46-12.46H136.65a12.036,12.036,0,0,1-10.61,6.43H69.47a12.024,12.024,0,0,1-10.61-6.43H26.78A12.5,12.5,0,0,0,14.32,73.08V84.1" fill="none" stroke="#5596a5" stroke-miterlimit="10" stroke-width="1"/>
      <path id="Path_540" data-name="Path 540" d="M34.35,50.91H17.07a12.035,12.035,0,0,0-12,12v9.52A12.043,12.043,0,0,0,14.32,84.1V73.08A12.5,12.5,0,0,1,26.78,60.62H58.86a12.036,12.036,0,0,0,10.61,6.43h56.56a12.024,12.024,0,0,0,10.61-6.43h32.08a12.5,12.5,0,0,1,12.46,12.46V84.1a12.037,12.037,0,0,0,9.25-11.67V62.91a12.035,12.035,0,0,0-12-12H161.16" fill="none" stroke="#5596a5" stroke-miterlimit="10" stroke-width="2"/>
      <path id="Path_541" data-name="Path 541" d="M14.32,84.1v66.65a12.5,12.5,0,0,0,12.46,12.46H168.72a12.5,12.5,0,0,0,12.46-12.46V84.1" fill="none" stroke="#5596a5" stroke-miterlimit="10" stroke-width="2"/>
      <path id="Path_542" data-name="Path 542" d="M34.35,60.62V4.39A3.4,3.4,0,0,1,37.74,1H157.77a3.4,3.4,0,0,1,3.39,3.39V60.61" fill="none" stroke="#5596a5" stroke-miterlimit="10" stroke-width="2"/>
      <path id="Path_543" data-name="Path 543" d="M150.83,22.89H44.68a.913.913,0,0,1-.91-.91h0a.913.913,0,0,1,.91-.91H150.83a.913.913,0,0,1,.91.91h0A.913.913,0,0,1,150.83,22.89Z" fill="#5596a5"/>
      <path id="Path_544" data-name="Path 544" d="M150.83,39.59H44.68a.913.913,0,0,1-.91-.91h0a.913.913,0,0,1,.91-.91H150.83a.913.913,0,0,1,.91.91h0A.913.913,0,0,1,150.83,39.59Z" fill="#5596a5"/>
      <path id="Path_545" data-name="Path 545" d="M136.1,31.59H59.41a.717.717,0,0,1-.72-.72v-.12a.717.717,0,0,1,.72-.72H136.1a.717.717,0,0,1,.72.72v.12A.73.73,0,0,1,136.1,31.59Z" fill="#5596a5"/>
      <path id="Path_546" data-name="Path 546" d="M136.1,47.86H59.41a.717.717,0,0,1-.72-.72v-.12a.717.717,0,0,1,.72-.72H136.1a.717.717,0,0,1,.72.72v.12A.73.73,0,0,1,136.1,47.86Z" fill="#5596a5"/>
      <path id="Path_547" data-name="Path 547" d="M68.12,15.14H45.16a.913.913,0,0,1-.91-.91h0a.913.913,0,0,1,.91-.91H68.12a.913.913,0,0,1,.91.91h0A.907.907,0,0,1,68.12,15.14Z" fill="#5596a5"/>
      <path id="Path_548" data-name="Path 548" d="M200.21,85.79h0a3.188,3.188,0,0,1-3.18-3.18V52.39a3.188,3.188,0,0,1,3.18-3.18h0a3.188,3.188,0,0,1,3.18,3.18V82.61A3.188,3.188,0,0,1,200.21,85.79Z" fill="none" stroke="#5596a5" stroke-miterlimit="10" stroke-width="2"/>
      <line id="Line_51" data-name="Line 51" x2="6.61" transform="translate(190.43 60.62)" fill="none" stroke="#5596a5" stroke-miterlimit="10" stroke-width="2"/>
      <line id="Line_52" data-name="Line 52" x2="6.61" transform="translate(190.43 73.86)" fill="none" stroke="#5596a5" stroke-miterlimit="10" stroke-width="2"/>
      <path id="Path_549" data-name="Path 549" d="M4.93,62.03h0C2.77,62.03,1,63.07,1,64.35v6.32c0,1.27,1.77,2.31,3.93,2.31h0" fill="none" stroke="#5596a5" stroke-miterlimit="10" stroke-width="2"/>
    </g>
    <rect id="Rectangle_897" data-name="Rectangle 897" width="306" height="202" transform="translate(1494 2695)" fill="none"/>
  </g>
</svg>
