<svg xmlns="http://www.w3.org/2000/svg" width="306" height="202" viewBox="0 0 306 202">
  <g id="Group_299" data-name="Group 299" transform="translate(-1494 -2145)">
    <g id="Group_296" data-name="Group 296">
      <g id="Group_266" data-name="Group 266" transform="translate(1497 2169)">
        <g id="Group_264" data-name="Group 264">
          <g id="Group_262" data-name="Group 262">
            <path id="Path_504" data-name="Path 504" d="M79.1,60.44V55.07l14.51-5.76v5.24L85.06,57.7l8.55,3.15v5.3Z" fill="#80956b"/>
            <path id="Path_505" data-name="Path 505" d="M100.3,42.35h5.85V53.7a4.763,4.763,0,0,1,1.95-1.71,6.326,6.326,0,0,1,2.8-.6,5.316,5.316,0,0,1,4.37,1.8,8.156,8.156,0,0,1,1.48,5.29V68.7H110.9V59.59c0-1.99-.75-2.99-2.24-2.99a2.217,2.217,0,0,0-1.85.83,3.822,3.822,0,0,0-.65,2.39V68.7h-5.85V42.35Z" fill="#80956b"/>
            <path id="Path_506" data-name="Path 506" d="M123.62,56.63h-2.83V51.91h2.83V47.58h5.85v4.33h3.45v4.72h-3.45V68.7h-5.85Z" fill="#80956b"/>
            <path id="Path_507" data-name="Path 507" d="M137.58,51.92h5.69l.06,2.05a4.467,4.467,0,0,1,1.9-1.9,6.222,6.222,0,0,1,2.94-.67,5.609,5.609,0,0,1,2.89.72,5.143,5.143,0,0,1,1.95,2.05,5.027,5.027,0,0,1,2.08-2.03,6.54,6.54,0,0,1,3.15-.73,5.476,5.476,0,0,1,4.44,1.8,8.041,8.041,0,0,1,1.51,5.29V68.7h-5.82V59.59a3.821,3.821,0,0,0-.54-2.26,1.936,1.936,0,0,0-1.67-.73,2.071,2.071,0,0,0-1.76.83,3.959,3.959,0,0,0-.62,2.39V68.7h-5.82V59.59a3.821,3.821,0,0,0-.54-2.26,1.9,1.9,0,0,0-1.64-.73,2.1,2.1,0,0,0-1.79.83,3.959,3.959,0,0,0-.62,2.39V68.7h-5.82V51.92Z" fill="#80956b"/>
            <path id="Path_508" data-name="Path 508" d="M169.55,42.35h5.85V68.7h-5.85Z" fill="#80956b"/>
            <path id="Path_509" data-name="Path 509" d="M182.1,60.92l8.55-3.15-8.55-3.15v-5.3l14.51,5.72v5.37L182.1,66.17Z" fill="#80956b"/>
          </g>
          <g id="Group_263" data-name="Group 263">
            <path id="Path_510" data-name="Path 510" d="M130.23,106.73a3.385,3.385,0,0,1-2.39-.86,2.934,2.934,0,0,1-.93-2.26,2.878,2.878,0,0,1,.93-2.2,3.4,3.4,0,0,1,2.39-.86,3.318,3.318,0,0,1,2.37.86,2.882,2.882,0,0,1,.91,2.2,2.954,2.954,0,0,1-.91,2.26A3.292,3.292,0,0,1,130.23,106.73Z" fill="#80956b"/>
            <path id="Path_511" data-name="Path 511" d="M146.52,106.99a10.534,10.534,0,0,1-4.83-1.06,7.916,7.916,0,0,1-3.29-3.04,8.944,8.944,0,0,1-1.19-4.68,9.068,9.068,0,0,1,1.14-4.55,8.245,8.245,0,0,1,3.25-3.19,9.924,9.924,0,0,1,4.88-1.17,14.1,14.1,0,0,1,3.12.36,10.561,10.561,0,0,1,2.63.91l-.68,4.91a10.1,10.1,0,0,0-4.33-.98,4.508,4.508,0,0,0-3.07.98,3.345,3.345,0,0,0-1.12,2.67,3.308,3.308,0,0,0,1.14,2.68,4.743,4.743,0,0,0,3.15.96,11.67,11.67,0,0,0,4.42-.98l.59,4.78a10.045,10.045,0,0,1-2.68,1.02A12.652,12.652,0,0,1,146.52,106.99Z" fill="#80956b"/>
            <path id="Path_512" data-name="Path 512" d="M163.63,107.06a15.492,15.492,0,0,1-3.82-.46,9.009,9.009,0,0,1-2.91-1.2l.65-4.26a9.993,9.993,0,0,0,2.73,1.22,10.935,10.935,0,0,0,2.99.44c1.41,0,2.11-.34,2.11-1.01a.886.886,0,0,0-.49-.81,8.809,8.809,0,0,0-1.98-.68,9.938,9.938,0,0,1-4.41-2.11,4.8,4.8,0,0,1-1.32-3.58,4.654,4.654,0,0,1,1.92-3.94,8.657,8.657,0,0,1,5.27-1.43,15.44,15.44,0,0,1,3.33.36,9.456,9.456,0,0,1,2.72.98l-.59,4.2a12.543,12.543,0,0,0-2.54-.93,10.511,10.511,0,0,0-2.57-.34c-1.19,0-1.79.33-1.79.98a.93.93,0,0,0,.52.83,8.194,8.194,0,0,0,1.98.67,9.315,9.315,0,0,1,4.39,2.11,4.933,4.933,0,0,1,1.37,3.64,4.558,4.558,0,0,1-1.98,3.94A9.7,9.7,0,0,1,163.63,107.06Z" fill="#80956b"/>
            <path id="Path_513" data-name="Path 513" d="M181.78,107.06a15.492,15.492,0,0,1-3.82-.46,9.009,9.009,0,0,1-2.91-1.2l.65-4.26a9.993,9.993,0,0,0,2.73,1.22,10.935,10.935,0,0,0,2.99.44c1.41,0,2.11-.34,2.11-1.01a.886.886,0,0,0-.49-.81,8.809,8.809,0,0,0-1.98-.68,9.938,9.938,0,0,1-4.41-2.11,4.8,4.8,0,0,1-1.32-3.58,4.654,4.654,0,0,1,1.92-3.94,8.657,8.657,0,0,1,5.27-1.43,15.44,15.44,0,0,1,3.33.36,9.456,9.456,0,0,1,2.72.98l-.59,4.2a12.543,12.543,0,0,0-2.54-.93,10.511,10.511,0,0,0-2.57-.34c-1.19,0-1.79.33-1.79.98a.93.93,0,0,0,.52.83,8.194,8.194,0,0,0,1.98.67,9.315,9.315,0,0,1,4.39,2.11,4.933,4.933,0,0,1,1.37,3.64,4.558,4.558,0,0,1-1.98,3.94A9.7,9.7,0,0,1,181.78,107.06Z" fill="#80956b"/>
            <path id="Path_514" data-name="Path 514" d="M203.25,111.22a8.621,8.621,0,0,1-5.35-1.38,4.98,4.98,0,0,1-1.77-4.18,9.151,9.151,0,0,1,.16-1.71c.11-.57.22-1.17.32-1.77a10.346,10.346,0,0,0,.16-1.85,2.6,2.6,0,0,0-.55-1.9,2.773,2.773,0,0,0-1.95-.54h-.78V93.17h.78a2.773,2.773,0,0,0,1.95-.54,2.6,2.6,0,0,0,.55-1.9,10.266,10.266,0,0,0-.16-1.85c-.11-.61-.22-1.2-.32-1.77a9,9,0,0,1-.16-1.71,4.98,4.98,0,0,1,1.77-4.18,8.64,8.64,0,0,1,5.35-1.38c.67,0,1.52.03,2.54.1v4.55q-.135-.03-1.53-.03a3.215,3.215,0,0,0-2.11.55,2.235,2.235,0,0,0-.65,1.79,7.77,7.77,0,0,0,.16,1.51c.11.55.22,1.13.33,1.72a9.955,9.955,0,0,1,.16,1.8,3.96,3.96,0,0,1-.68,2.31,3.8,3.8,0,0,1-1.89,1.4,3.621,3.621,0,0,1,1.89,1.37,3.889,3.889,0,0,1,.68,2.31,9.985,9.985,0,0,1-.16,1.81c-.11.6-.22,1.17-.33,1.73a7.77,7.77,0,0,0-.16,1.51,2.235,2.235,0,0,0,.65,1.79,3.233,3.233,0,0,0,2.11.55q1.335,0,1.53-.03v4.55C204.76,111.19,203.92,111.22,203.25,111.22Z" fill="#80956b"/>
            <path id="Path_515" data-name="Path 515" d="M212.19,111.22c-.17,0-.36-.01-.57-.02s-.46-.02-.76-.03-.71-.03-1.2-.05v-4.55q.135.03,1.53.03a3.215,3.215,0,0,0,2.11-.55,2.249,2.249,0,0,0,.65-1.79,7.693,7.693,0,0,0-.16-1.51c-.11-.55-.22-1.13-.32-1.73a9.985,9.985,0,0,1-.16-1.81,3.96,3.96,0,0,1,.68-2.31,3.74,3.74,0,0,1,1.89-1.4,3.6,3.6,0,0,1-1.89-1.36,3.889,3.889,0,0,1-.68-2.31,9.8,9.8,0,0,1,.16-1.8c.11-.6.22-1.17.32-1.72a7.77,7.77,0,0,0,.16-1.51,2.249,2.249,0,0,0-.65-1.79,3.233,3.233,0,0,0-2.11-.55q-1.335,0-1.53.03V79.94c.5-.02.9-.04,1.2-.05s.56-.02.76-.03.4-.02.57-.02a8.621,8.621,0,0,1,5.35,1.38,4.98,4.98,0,0,1,1.77,4.18,9.151,9.151,0,0,1-.16,1.71c-.11.57-.22,1.17-.33,1.77a10.427,10.427,0,0,0-.16,1.85,2.6,2.6,0,0,0,.55,1.9,2.773,2.773,0,0,0,1.95.54h.78v4.72h-.78a2.773,2.773,0,0,0-1.95.54,2.6,2.6,0,0,0-.55,1.9,10.266,10.266,0,0,0,.16,1.85q.165.915.33,1.77a9,9,0,0,1,.16,1.71,4.98,4.98,0,0,1-1.77,4.18A8.64,8.64,0,0,1,212.19,111.22Z" fill="#80956b"/>
          </g>
        </g>
        <g id="Group_265" data-name="Group 265">
          <path id="Path_516" data-name="Path 516" d="M256.92,146.17H41.97A11.369,11.369,0,0,1,30.6,134.8V16.01A15.061,15.061,0,0,1,45.61,1H253.47a14.89,14.89,0,0,1,14.85,14.85V134.77A11.4,11.4,0,0,1,256.92,146.17Z" fill="none" stroke="#80956b" stroke-miterlimit="10" stroke-width="2"/>
          <path id="Path_517" data-name="Path 517" d="M1,143.11H299.93v1.38c0,4.45-18.63,8.08-23.08,8.08H24.14c-4.45,0-23.14-3.64-23.14-8.08Z" fill="#fff" stroke="#80956b" stroke-miterlimit="10" stroke-width="2"/>
          <path id="Path_518" data-name="Path 518" d="M251.94,134.7H47.4a3.4,3.4,0,0,1-3.4-3.4V18.52a3.4,3.4,0,0,1,3.4-3.4H251.95a3.4,3.4,0,0,1,3.4,3.4V131.3A3.412,3.412,0,0,1,251.94,134.7Z" fill="none" stroke="#80956b" stroke-miterlimit="10" stroke-width="2"/>
        </g>
        <circle id="Ellipse_16" data-name="Ellipse 16" cx="2.01" cy="2.01" r="2.01" transform="translate(148.45 6.26)" fill="none" stroke="#80956b" stroke-miterlimit="10" stroke-width="1"/>
        <path id="Path_519" data-name="Path 519" d="M169.94,147.84H130.99a3.551,3.551,0,0,1-3.55-3.55h0a1.182,1.182,0,0,1,1.18-1.18H172.3a1.182,1.182,0,0,1,1.18,1.18h0A3.53,3.53,0,0,1,169.94,147.84Z" fill="none" stroke="#80956b" stroke-miterlimit="10" stroke-width="1"/>
      </g>
      <rect id="Rectangle_895" data-name="Rectangle 895" width="306" height="202" transform="translate(1494 2145)" fill="none"/>
    </g>
  </g>
</svg>
