<svg xmlns="http://www.w3.org/2000/svg" width="306" height="202" viewBox="0 0 306 202">
  <g id="Group_293" data-name="Group 293" transform="translate(-1494 -1124)">
    <rect id="Rectangle_892" data-name="Rectangle 892" width="306" height="202" transform="translate(1494 1124)" fill="none"/>
    <g id="Group_49" data-name="Group 49" transform="translate(1494 1161.99)">
      <g id="Group_35" data-name="Group 35" transform="translate(34.799 64.487)">
        <path id="Path_65" data-name="Path 65" d="M47.3,79.863a14.657,14.657,0,0,1-5.5-4.432L26.884,54.693A3.941,3.941,0,0,1,31.8,48.836,3.7,3.7,0,0,1,33.287,50.1L39.9,59.3a1.813,1.813,0,0,1,.173-.519A15.763,15.763,0,1,1,47.3,79.863Zm3.487-7.095a7.864,7.864,0,1,0-3.634-10.5A7.852,7.852,0,0,0,50.79,72.769Z" transform="translate(-26.143 -48.45)" fill="#d68549"/>
      </g>
      <g id="Group_36" data-name="Group 36" transform="translate(64.643 49.793)">
        <path id="Path_66" data-name="Path 66" d="M53.537,64.67A15.765,15.765,0,1,1,80,54.82a11.817,11.817,0,1,1-9.317,20.392,11.7,11.7,0,0,1-3.567-6.562A15.755,15.755,0,0,1,53.537,64.67Zm5.391-5.777a7.864,7.864,0,1,0-.346-11.114A7.87,7.87,0,0,0,58.928,58.893Zm16.945,5A3.918,3.918,0,1,0,81.6,69.249,3.918,3.918,0,0,0,75.872,63.9Z" transform="translate(-48.565 -37.41)" fill="#d68549"/>
      </g>
      <g id="Group_37" data-name="Group 37" transform="translate(116.855 57.446)">
        <path id="Path_67" data-name="Path 67" d="M107.024,54.192V70.684a2.68,2.68,0,0,1-1.8,2.542,2.394,2.394,0,0,1-.985.186,2.742,2.742,0,0,1-2.076-.985L93.3,61.779v8.9a2.755,2.755,0,0,1-5.511,0V54.192a2.71,2.71,0,0,1,1.8-2.6,2.393,2.393,0,0,1,.985-.186,2.742,2.742,0,0,1,2.076.985l8.9,10.649V54.192a2.736,2.736,0,1,1,5.471,0Z" transform="translate(-87.79 -40.429)" fill="#d68549"/>
        <path id="Path_68" data-name="Path 68" d="M114.494,73.373a9.466,9.466,0,0,1-7.068-3.487,11.94,11.94,0,0,1-2.356-7.494c0-6.083,4.339-10.981,9.61-10.981a9.053,9.053,0,0,1,6.882,3.115,10.744,10.744,0,0,1,2.729,7.4,2.778,2.778,0,0,1-2.729,2.782h-10.7a4.086,4.086,0,0,0,3.913,3.208h.28a5.256,5.256,0,0,0,3.208-.852,2.927,2.927,0,0,1,1.5-.426,2.724,2.724,0,0,1,2.3,1.225,2.343,2.343,0,0,1,.466,1.464,2.853,2.853,0,0,1-1.278,2.356,10.794,10.794,0,0,1-5.937,1.744A5.907,5.907,0,0,1,114.494,73.373Zm3.727-14.189a3.918,3.918,0,0,0-3.541-2.3,4.025,4.025,0,0,0-3.3,2.3Z" transform="translate(-82.069 -40.429)" fill="#d68549"/>
        <path id="Path_69" data-name="Path 69" d="M137.419,56.923a2.732,2.732,0,0,1-2.729,2.729h-2.782V73.415a2.729,2.729,0,0,1-5.457,0V59.652h-2.782a2.755,2.755,0,0,1,0-5.511h2.782V45.889a2.729,2.729,0,0,1,5.457,0v8.253h2.782A2.744,2.744,0,0,1,137.419,56.923Z" transform="translate(-76.815 -43.16)" fill="#d68549"/>
        <path id="Path_70" data-name="Path 70" d="M164.811,54.192a2.978,2.978,0,0,1-.146.892l-5.79,16.492a2.752,2.752,0,0,1-5.191,0l-3.208-9.144-3.208,9.144a2.752,2.752,0,0,1-5.191,0l-5.79-16.492a2.978,2.978,0,0,1-.146-.892,2.693,2.693,0,0,1,1.837-2.6,3.058,3.058,0,0,1,.945-.146,2.628,2.628,0,0,1,2.542,1.8l3.208,9.091,3.155-9.091a2.647,2.647,0,0,1,2.542-1.837h.186a2.772,2.772,0,0,1,2.5,1.837l3.208,9.091,3.208-9.091a2.628,2.628,0,0,1,2.542-1.8,3.328,3.328,0,0,1,.945.146A2.755,2.755,0,0,1,164.811,54.192Z" transform="translate(-71.783 -40.429)" fill="#d68549"/>
        <path id="Path_71" data-name="Path 71" d="M181.093,62.431A11,11,0,1,1,170.071,51.41,11.035,11.035,0,0,1,181.093,62.431Zm-5.511,0a5.491,5.491,0,1,0-5.511,5.471A5.488,5.488,0,0,0,175.582,62.431Z" transform="translate(-64.185 -40.429)" fill="#d68549"/>
        <path id="Path_72" data-name="Path 72" d="M189.428,54.192a2.732,2.732,0,0,1-2.729,2.729c-.892,0-2.076.146-2.542.852a1.548,1.548,0,0,0-.186.519V70.684a2.755,2.755,0,0,1-5.511,0V54.192a2.744,2.744,0,0,1,2.729-2.782,2.649,2.649,0,0,1,1.8.666,9.717,9.717,0,0,1,3.727-.666A2.742,2.742,0,0,1,189.428,54.192Z" transform="translate(-57.772 -40.429)" fill="#d68549"/>
        <path id="Path_73" data-name="Path 73" d="M206.591,71.432a2.635,2.635,0,0,1,.8,1.983,2.73,2.73,0,0,1-4.659,1.93l-7.68-7.68v5.75a2.778,2.778,0,0,1-2.782,2.729,2.732,2.732,0,0,1-2.729-2.729V45.889a2.732,2.732,0,0,1,2.729-2.729,2.778,2.778,0,0,1,2.782,2.729V62.62l7.68-7.68a2.7,2.7,0,0,1,1.93-.759,2.771,2.771,0,0,1,1.93.759,2.941,2.941,0,0,1,.8,1.983,2.743,2.743,0,0,1-.8,1.93l-6.309,6.309Z" transform="translate(-54.103 -43.16)" fill="#d68549"/>
      </g>
      <g id="Group_39" data-name="Group 39" transform="translate(15.906 44.468)">
        <g id="Group_38" data-name="Group 38">
          <line id="Line_15" data-name="Line 15" x2="1.557" y2="2.156" fill="none" stroke="#d68549" stroke-miterlimit="10" stroke-width="1"/>
          <line id="Line_16" data-name="Line 16" x2="54.095" y2="74.886" transform="translate(3.075 4.259)" fill="none" stroke="#d68549" stroke-miterlimit="10" stroke-width="1" stroke-dasharray="3.91 1.955"/>
          <line id="Line_17" data-name="Line 17" x2="1.557" y2="2.156" transform="translate(57.928 80.197)" fill="none" stroke="#d68549" stroke-miterlimit="10" stroke-width="1"/>
        </g>
      </g>
      <g id="Group_41" data-name="Group 41" transform="translate(75.991 31.943)">
        <g id="Group_40" data-name="Group 40">
          <line id="Line_18" data-name="Line 18" x2="1.557" y2="2.156" fill="none" stroke="#d68549" stroke-miterlimit="10" stroke-width="1"/>
          <line id="Line_19" data-name="Line 19" x2="54.334" y2="75.232" transform="translate(3.088 4.273)" fill="none" stroke="#d68549" stroke-miterlimit="10" stroke-width="1" stroke-dasharray="3.928 1.964"/>
          <line id="Line_20" data-name="Line 20" x2="1.571" y2="2.156" transform="translate(58.181 80.556)" fill="none" stroke="#d68549" stroke-miterlimit="10" stroke-width="1"/>
        </g>
      </g>
      <g id="Group_43" data-name="Group 43" transform="translate(0 67.575)">
        <g id="Group_42" data-name="Group 42">
          <line id="Line_21" data-name="Line 21" x2="2.662" fill="none" stroke="#d68549" stroke-miterlimit="10" stroke-width="1"/>
          <line id="Line_22" data-name="Line 22" x2="281.255" transform="translate(5.351)" fill="none" stroke="#d68549" stroke-miterlimit="10" stroke-width="1" stroke-dasharray="4.044 2.022"/>
          <line id="Line_23" data-name="Line 23" x2="2.662" transform="translate(287.951)" fill="none" stroke="#d68549" stroke-miterlimit="10" stroke-width="1"/>
        </g>
      </g>
      <g id="Group_45" data-name="Group 45" transform="translate(14.282 90.59)">
        <g id="Group_44" data-name="Group 44">
          <line id="Line_24" data-name="Line 24" x2="2.662" transform="translate(0 0.253)" fill="none" stroke="#d68549" stroke-miterlimit="10" stroke-width="1"/>
          <line id="Line_25" data-name="Line 25" y1="0.253" x2="282.453" transform="translate(5.284)" fill="none" stroke="#d68549" stroke-miterlimit="10" stroke-width="1" stroke-dasharray="3.948 1.974"/>
          <line id="Line_26" data-name="Line 26" x2="2.662" transform="translate(289.055)" fill="none" stroke="#d68549" stroke-miterlimit="10" stroke-width="1"/>
        </g>
      </g>
      <g id="Group_48" data-name="Group 48" transform="translate(259.825 0.01)">
        <path id="Path_74" data-name="Path 74" d="M203.428,45.823l-6.536-4.06a1.125,1.125,0,0,1-.359-1.557L218.576,4.733a1.125,1.125,0,0,1,1.557-.359l6.536,4.06a1.125,1.125,0,0,1,.359,1.557L204.985,45.463A1.125,1.125,0,0,1,203.428,45.823Z" transform="translate(-194.816 1.378)" fill="#d68549"/>
        <path id="Path_75" data-name="Path 75" d="M221.418,8.7l-6.536-4.06a1.125,1.125,0,0,1-.359-1.557L216.107.543a1.125,1.125,0,0,1,1.557-.359l6.536,4.06a1.125,1.125,0,0,1,.359,1.557l-1.584,2.542A1.152,1.152,0,0,1,221.418,8.7Z" transform="translate(-188.86 -0.01)" fill="#d68549"/>
        <g id="Group_46" data-name="Group 46" transform="translate(5.352 9.731)">
          <rect id="Rectangle_101" data-name="Rectangle 101" width="37.43" height="0.666" transform="translate(0 31.789) rotate(-58.136)" fill="#f7f7f7"/>
          <rect id="Rectangle_102" data-name="Rectangle 102" width="37.43" height="0.666" transform="translate(2.683 33.449) rotate(-58.136)" fill="#f7f7f7"/>
        </g>
        <g id="Group_47" data-name="Group 47" transform="translate(0 43.95)">
          <path id="Path_76" data-name="Path 76" d="M195.333,37.66l-.133,3.022a.361.361,0,0,0,.546.333l2.649-1.451Z" transform="translate(-195.2 -31.495)" fill="#d68549"/>
          <path id="Path_77" data-name="Path 77" d="M203.493,37.676l-7.387-4.592a.366.366,0,0,0-.559.293l-.226,5.244,3.541,2.2,4.606-2.516A.357.357,0,0,0,203.493,37.676Z" transform="translate(-195.16 -33.028)" fill="#d68549"/>
        </g>
      </g>
    </g>
  </g>
</svg>
