<?xml version="1.0" encoding="utf-8"?>
<!-- Generator: Adobe Illustrator 23.0.2, SVG Export Plug-In . SVG Version: 6.00 Build 0)  -->
<svg version="1.1" id="Layer_1" xmlns="http://www.w3.org/2000/svg" xmlns:xlink="http://www.w3.org/1999/xlink" x="0px" y="0px"
	 viewBox="0 0 192 79.2" style="enable-background:new 0 0 192 79.2;" xml:space="preserve">
<g>
	<path style="fill:#222222;" d="M0,18.3h15.2c7.7,0,13.6,2,17.8,6c4.2,4,6.3,9.6,6.3,16.8c0,7.4-2.1,13-6.4,16.9
		c-4.3,3.9-10.4,5.9-18.4,5.9H0V18.3z M3.7,60.6h11c6.9,0,12.1-1.6,15.6-4.9c3.5-3.3,5.2-8.1,5.2-14.5c0-6.4-1.8-11.3-5.2-14.6
		c-3.5-3.3-8.7-5-15.5-5h-11V60.6z"/>
	<path style="fill:#222222;" d="M63.7,64.9c-4.8,0-8.7-1.4-11.6-4.2c-2.9-2.8-4.4-6.6-4.4-11.2c0-2.9,0.6-5.6,1.8-8s2.9-4.3,5.1-5.7
		c2.2-1.4,4.7-2.1,7.5-2.1c2.5,0,4.7,0.6,6.7,1.7c2,1.2,3.5,2.8,4.6,4.9c1.1,2.1,1.7,4.6,1.7,7.5c0,0.7-0.1,1.5-0.2,2.5H51.1
		c0.2,3.6,1.4,6.4,3.6,8.4c2.3,2.1,5.3,3.1,9.2,3.1c3.7,0,7-0.8,10-2.5l0.5,3c-1.2,0.8-2.8,1.4-4.7,1.9
		C67.7,64.6,65.7,64.9,63.7,64.9z M71.6,47.2c-0.1-3.2-1-5.8-2.8-7.7c-1.8-1.9-4.1-2.9-7-2.9c-2.8,0-5.2,1-7.2,2.9
		c-1.9,1.9-3.1,4.5-3.5,7.7H71.6z"/>
	<path style="fill:#222222;" d="M92.5,64.9c-1.9,0-3.7-0.3-5.5-0.8s-3.3-1.2-4.4-2l0.5-3.2c1.3,0.9,2.8,1.7,4.5,2.2
		c1.7,0.5,3.4,0.8,4.9,0.8c2.4,0,4.4-0.5,5.8-1.4c1.4-0.9,2.1-2.2,2.1-3.8c0-1.1-0.3-2-0.8-2.6c-0.5-0.6-1.3-1.2-2.5-1.8
		s-2.9-1.2-5.1-1.9c-3.2-1-5.4-2.2-6.8-3.5c-1.3-1.3-2-3.1-2-5.2c0-2.4,0.9-4.4,2.8-5.9c1.9-1.5,4.4-2.2,7.5-2.2
		c1.5,0,3.1,0.2,4.7,0.6c1.6,0.4,3,1,4.2,1.7L102,39c-1.2-0.8-2.5-1.3-4-1.8c-1.5-0.4-3-0.6-4.4-0.6c-2.2,0-3.9,0.4-5.1,1.3
		c-1.2,0.8-1.8,2-1.8,3.5c0,1.4,0.5,2.6,1.5,3.5c1,0.9,2.8,1.7,5.3,2.4c3.8,1.1,6.5,2.3,8.1,3.7s2.3,3.2,2.3,5.5
		c0,2.6-1,4.6-3.1,6.1C98.8,64.1,96,64.9,92.5,64.9z"/>
	<path style="fill:#222222;" d="M114.7,25.6c-0.8,0-1.4-0.2-1.9-0.8c-0.5-0.5-0.8-1.1-0.8-1.9c0-0.8,0.2-1.4,0.8-1.9
		c0.5-0.5,1.1-0.7,1.9-0.7c0.8,0,1.4,0.2,1.9,0.7c0.5,0.5,0.7,1.1,0.7,1.9c0,0.8-0.2,1.4-0.7,1.9C116,25.3,115.4,25.6,114.7,25.6z
		 M112.9,34.6h3.5v29.3h-3.5V34.6z"/>
	<path style="fill:#222222;" d="M139.9,79.2c-1.8,0-3.8-0.3-5.9-0.8c-2.1-0.5-3.7-1.2-5-2.1l0.5-3.1c1.3,0.9,2.9,1.6,4.8,2.1
		c1.9,0.5,3.7,0.8,5.5,0.8c4.3,0,7.4-1.1,9.4-3.3c2-2.2,3-5.8,3-10.6v-3.8c-1.1,2-2.7,3.6-4.8,4.8c-2.1,1.2-4.5,1.7-7.1,1.7
		c-2.7,0-5.2-0.7-7.4-2c-2.2-1.3-4-3.1-5.2-5.5c-1.3-2.4-2-5.1-2-8.1c0-2.8,0.6-5.4,1.9-7.7c1.3-2.4,3-4.3,5.3-5.7
		c2.3-1.5,4.8-2.2,7.7-2.2c2.5,0,4.7,0.6,6.8,1.7c2.1,1.2,3.6,2.7,4.8,4.7l0.1-5.5h3.4v27.2c0,5.9-1.3,10.2-3.9,13.1
		C149.1,77.8,145.2,79.2,139.9,79.2z M140.9,61.7c2.2,0,4.1-0.5,5.9-1.5c1.7-1,3.1-2.5,4.2-4.4c1-1.9,1.6-4.1,1.6-6.6
		c0-2.3-0.5-4.4-1.4-6.3c-1-1.9-2.3-3.4-4.1-4.5c-1.8-1.1-3.8-1.7-6.1-1.7c-2.1,0-4.1,0.5-5.8,1.5c-1.8,1-3.2,2.5-4.2,4.4
		c-1,1.9-1.6,4.1-1.6,6.6c0,2.3,0.5,4.4,1.4,6.3c0.9,1.9,2.3,3.4,4,4.5C136.5,61.2,138.6,61.7,140.9,61.7z"/>
	<path style="fill:#222222;" d="M167.2,34.6h3.2l0.1,5c1-1.9,2.5-3.4,4.3-4.4c1.8-1,3.9-1.5,6.3-1.5c3.5,0,6.2,1.1,8.1,3.3
		c1.9,2.2,2.9,5.3,2.9,9.3v17.7h-3.5V46.7c0-6.7-2.7-10-8.2-10c-3,0-5.3,1-7.1,3c-1.7,2-2.6,4.8-2.6,8.2v16h-3.5V34.6z"/>
</g>
<g>
	<path style="fill:#222222;" d="M3.4,9.8c-1.1,0-1.9-0.3-2.5-0.9C0.3,8.2,0,7.4,0,6.2V1.2h0.7v5c0,1,0.2,1.7,0.7,2.2
		c0.5,0.5,1.2,0.8,2.1,0.8S5,8.9,5.5,8.4C6,7.9,6.2,7.1,6.2,6.1v-5h0.7v5.1c0,1.1-0.3,2-0.9,2.6C5.4,9.5,4.5,9.8,3.4,9.8z"/>
	<path style="fill:#222222;" d="M10.5,9.8c-0.3,0-0.7,0-1-0.1C9.2,9.5,8.9,9.4,8.7,9.2l0.1-0.6C9,8.8,9.3,9,9.6,9.1
		c0.3,0.1,0.6,0.1,0.9,0.1c0.4,0,0.8-0.1,1.1-0.3C11.8,8.8,12,8.6,12,8.2c0-0.2,0-0.4-0.1-0.5c-0.1-0.1-0.2-0.2-0.5-0.3
		c-0.2-0.1-0.5-0.2-0.9-0.3c-0.6-0.2-1-0.4-1.2-0.6c-0.2-0.2-0.4-0.6-0.4-1C8.8,5,9,4.7,9.3,4.4C9.7,4.1,10.1,4,10.7,4
		c0.3,0,0.6,0,0.9,0.1c0.3,0.1,0.6,0.2,0.8,0.3L12.3,5c-0.2-0.1-0.5-0.2-0.7-0.3c-0.3-0.1-0.5-0.1-0.8-0.1c-0.4,0-0.7,0.1-0.9,0.2
		C9.5,4.9,9.4,5.2,9.4,5.4c0,0.3,0.1,0.5,0.3,0.6s0.5,0.3,1,0.4c0.7,0.2,1.2,0.4,1.5,0.7c0.3,0.3,0.4,0.6,0.4,1
		c0,0.5-0.2,0.8-0.6,1.1C11.7,9.6,11.2,9.8,10.5,9.8z"/>
	<path style="fill:#222222;" d="M16.8,9.8c-0.9,0-1.6-0.3-2.1-0.8c-0.5-0.5-0.8-1.2-0.8-2.1c0-0.5,0.1-1,0.3-1.5
		c0.2-0.4,0.5-0.8,0.9-1.1C15.5,4.1,16,4,16.5,4c0.5,0,0.9,0.1,1.2,0.3c0.4,0.2,0.6,0.5,0.9,0.9c0.2,0.4,0.3,0.9,0.3,1.4
		c0,0.1,0,0.3,0,0.5h-4.4c0,0.7,0.3,1.2,0.7,1.6c0.4,0.4,1,0.6,1.7,0.6c0.7,0,1.3-0.2,1.8-0.5l0.1,0.6c-0.2,0.1-0.5,0.3-0.9,0.3
		C17.6,9.7,17.2,9.8,16.8,9.8z M18.3,6.5c0-0.6-0.2-1.1-0.5-1.4c-0.3-0.4-0.8-0.5-1.3-0.5c-0.5,0-1,0.2-1.3,0.5
		c-0.4,0.4-0.6,0.8-0.6,1.4H18.3z"/>
	<path style="fill:#222222;" d="M20.7,4.2h0.6v1.1c0.4-0.8,1-1.2,1.8-1.2c0.3,0,0.5,0,0.6,0.1l-0.1,0.6c-0.2-0.1-0.4-0.1-0.6-0.1
		c-0.5,0-0.9,0.2-1.2,0.6c-0.3,0.4-0.4,1-0.4,1.7v2.6h-0.6V4.2z"/>
	<path style="fill:#222222;" d="M30.2,9.8c-0.9,0-1.6-0.3-2.1-0.8c-0.5-0.5-0.8-1.2-0.8-2.1c0-0.5,0.1-1,0.3-1.5
		c0.2-0.4,0.5-0.8,0.9-1.1C28.9,4.1,29.3,4,29.8,4c0.5,0,0.9,0.1,1.2,0.3c0.4,0.2,0.6,0.5,0.9,0.9c0.2,0.4,0.3,0.9,0.3,1.4
		c0,0.1,0,0.3,0,0.5h-4.4c0,0.7,0.3,1.2,0.7,1.6c0.4,0.4,1,0.6,1.7,0.6c0.7,0,1.3-0.2,1.8-0.5l0.1,0.6c-0.2,0.1-0.5,0.3-0.9,0.3
		S30.5,9.8,30.2,9.8z M31.6,6.5c0-0.6-0.2-1.1-0.5-1.4c-0.3-0.4-0.8-0.5-1.3-0.5c-0.5,0-1,0.2-1.3,0.5c-0.4,0.4-0.6,0.8-0.6,1.4
		H31.6z"/>
	<path style="fill:#222222;" d="M35.5,6.8l-2-2.6h0.8l1.6,2.2l1.6-2.2h0.7l-2,2.6l2.2,2.8h-0.8l-1.8-2.4l-1.8,2.4h-0.7L35.5,6.8z"/>
	<path style="fill:#222222;" d="M40,4.2h0.6l0,1c0.2-0.4,0.5-0.7,0.9-0.9C41.9,4.1,42.3,4,42.8,4c0.5,0,1,0.1,1.4,0.4
		c0.4,0.2,0.7,0.6,1,1c0.2,0.4,0.4,0.9,0.4,1.5c0,0.5-0.1,1-0.3,1.4c-0.2,0.4-0.6,0.8-1,1.1c-0.4,0.3-0.9,0.4-1.4,0.4
		c-0.5,0-0.9-0.1-1.3-0.3c-0.4-0.2-0.7-0.5-0.9-0.9v3.7H40V4.2z M42.7,9.2c0.4,0,0.7-0.1,1.1-0.3c0.3-0.2,0.6-0.5,0.8-0.8
		c0.2-0.4,0.3-0.8,0.3-1.2c0-0.4-0.1-0.8-0.3-1.2c-0.2-0.3-0.4-0.6-0.7-0.8s-0.7-0.3-1.1-0.3c-0.4,0-0.8,0.1-1.1,0.3
		C41.3,5,41,5.3,40.8,5.7c-0.2,0.4-0.3,0.8-0.3,1.2c0,0.4,0.1,0.8,0.3,1.2c0.2,0.4,0.4,0.6,0.8,0.8C41.9,9.1,42.3,9.2,42.7,9.2z"/>
	<path style="fill:#222222;" d="M49.7,9.8c-0.9,0-1.6-0.3-2.1-0.8c-0.5-0.5-0.8-1.2-0.8-2.1c0-0.5,0.1-1,0.3-1.5
		C47.3,5,47.6,4.7,48,4.4C48.5,4.1,48.9,4,49.4,4c0.5,0,0.9,0.1,1.2,0.3c0.4,0.2,0.6,0.5,0.9,0.9c0.2,0.4,0.3,0.9,0.3,1.4
		c0,0.1,0,0.3,0,0.5h-4.4c0,0.7,0.3,1.2,0.7,1.6c0.4,0.4,1,0.6,1.7,0.6c0.7,0,1.3-0.2,1.8-0.5l0.1,0.6c-0.2,0.1-0.5,0.3-0.9,0.3
		S50.1,9.8,49.7,9.8z M51.2,6.5c0-0.6-0.2-1.1-0.5-1.4c-0.3-0.4-0.8-0.5-1.3-0.5c-0.5,0-1,0.2-1.3,0.5c-0.4,0.4-0.6,0.8-0.6,1.4
		H51.2z"/>
	<path style="fill:#222222;" d="M53.6,4.2h0.6v1.1c0.4-0.8,1-1.2,1.8-1.2c0.3,0,0.5,0,0.6,0.1l-0.1,0.6c-0.2-0.1-0.4-0.1-0.6-0.1
		c-0.5,0-0.9,0.2-1.2,0.6c-0.3,0.4-0.4,1-0.4,1.7v2.6h-0.6V4.2z"/>
	<path style="fill:#222222;" d="M58.4,2.5c-0.1,0-0.3,0-0.3-0.1c-0.1-0.1-0.1-0.2-0.1-0.3c0-0.1,0-0.3,0.1-0.3
		c0.1-0.1,0.2-0.1,0.3-0.1c0.1,0,0.3,0,0.3,0.1c0.1,0.1,0.1,0.2,0.1,0.3c0,0.1,0,0.3-0.1,0.3C58.6,2.5,58.5,2.5,58.4,2.5z M58,4.2
		h0.6v5.4H58V4.2z"/>
	<path style="fill:#222222;" d="M63.3,9.8c-0.9,0-1.6-0.3-2.1-0.8c-0.5-0.5-0.8-1.2-0.8-2.1c0-0.5,0.1-1,0.3-1.5
		c0.2-0.4,0.5-0.8,0.9-1.1C62.1,4.1,62.5,4,63,4c0.5,0,0.9,0.1,1.2,0.3c0.4,0.2,0.6,0.5,0.9,0.9c0.2,0.4,0.3,0.9,0.3,1.4
		c0,0.1,0,0.3,0,0.5H61c0,0.7,0.3,1.2,0.7,1.6c0.4,0.4,1,0.6,1.7,0.6c0.7,0,1.3-0.2,1.8-0.5l0.1,0.6c-0.2,0.1-0.5,0.3-0.9,0.3
		C64.1,9.7,63.7,9.8,63.3,9.8z M64.8,6.5c0-0.6-0.2-1.1-0.5-1.4C64,4.7,63.5,4.6,63,4.6c-0.5,0-1,0.2-1.3,0.5
		c-0.4,0.4-0.6,0.8-0.6,1.4H64.8z"/>
	<path style="fill:#222222;" d="M67.2,4.2h0.6l0,0.9c0.2-0.4,0.5-0.6,0.8-0.8C68.9,4.1,69.3,4,69.7,4c0.6,0,1.1,0.2,1.5,0.6
		c0.4,0.4,0.5,1,0.5,1.7v3.3h-0.6V6.4c0-1.2-0.5-1.8-1.5-1.8c-0.5,0-1,0.2-1.3,0.6C68,5.5,67.8,6,67.8,6.6v2.9h-0.6V4.2z"/>
	<path style="fill:#222222;" d="M76.4,9.8c-0.6,0-1.1-0.1-1.5-0.3c-0.4-0.2-0.8-0.6-1-1c-0.3-0.4-0.4-0.9-0.4-1.5
		c0-0.5,0.1-1,0.4-1.5c0.2-0.4,0.6-0.8,1-1C75.3,4.1,75.8,4,76.3,4C77,4,77.5,4.2,78,4.4L77.9,5c-0.2-0.1-0.5-0.2-0.7-0.3
		c-0.3-0.1-0.5-0.1-0.8-0.1c-0.4,0-0.8,0.1-1.1,0.3c-0.3,0.2-0.6,0.4-0.8,0.8c-0.2,0.3-0.3,0.7-0.3,1.2c0,0.7,0.2,1.3,0.6,1.7
		c0.4,0.4,1,0.6,1.6,0.6C77,9.2,77.5,9,78,8.8l0.1,0.5c-0.2,0.1-0.5,0.3-0.8,0.3C77,9.7,76.7,9.8,76.4,9.8z"/>
	<path style="fill:#222222;" d="M82.2,9.8c-0.9,0-1.6-0.3-2.1-0.8c-0.5-0.5-0.8-1.2-0.8-2.1c0-0.5,0.1-1,0.3-1.5
		c0.2-0.4,0.5-0.8,0.9-1.1C80.9,4.1,81.3,4,81.9,4c0.5,0,0.9,0.1,1.2,0.3c0.4,0.2,0.6,0.5,0.9,0.9c0.2,0.4,0.3,0.9,0.3,1.4
		c0,0.1,0,0.3,0,0.5h-4.4c0,0.7,0.3,1.2,0.7,1.6c0.4,0.4,1,0.6,1.7,0.6c0.7,0,1.3-0.2,1.8-0.5l0.1,0.6c-0.2,0.1-0.5,0.3-0.9,0.3
		S82.5,9.8,82.2,9.8z M83.6,6.5c0-0.6-0.2-1.1-0.5-1.4c-0.3-0.4-0.8-0.5-1.3-0.5c-0.5,0-1,0.2-1.3,0.5c-0.4,0.4-0.6,0.8-0.6,1.4
		H83.6z"/>
	<path style="fill:#222222;" d="M88.6,0h0.6v12.1h-0.6V0z"/>
	<path style="fill:#222222;" d="M94.3,1.2H95v8.4h-0.7V1.2z"/>
	<path style="fill:#222222;" d="M97.4,4.2H98l0,0.9c0.2-0.4,0.5-0.6,0.8-0.8C99.1,4.1,99.5,4,99.9,4c0.6,0,1.1,0.2,1.5,0.6
		c0.4,0.4,0.5,1,0.5,1.7v3.3h-0.6V6.4c0-1.2-0.5-1.8-1.5-1.8c-0.5,0-1,0.2-1.3,0.6C98.2,5.5,98,6,98,6.6v2.9h-0.6V4.2z"/>
	<path style="fill:#222222;" d="M104.5,4.7h-1.3V4.2h1.3V2.5h0.6v1.7h1.5v0.6h-1.5v4.8h-0.6V4.7z"/>
	<path style="fill:#222222;" d="M110.4,9.8c-0.9,0-1.6-0.3-2.1-0.8c-0.5-0.5-0.8-1.2-0.8-2.1c0-0.5,0.1-1,0.3-1.5
		c0.2-0.4,0.5-0.8,0.9-1.1c0.4-0.3,0.9-0.4,1.4-0.4c0.5,0,0.9,0.1,1.2,0.3c0.4,0.2,0.6,0.5,0.9,0.9c0.2,0.4,0.3,0.9,0.3,1.4
		c0,0.1,0,0.3,0,0.5H108c0,0.7,0.3,1.2,0.7,1.6c0.4,0.4,1,0.6,1.7,0.6c0.7,0,1.3-0.2,1.8-0.5l0.1,0.6c-0.2,0.1-0.5,0.3-0.9,0.3
		S110.7,9.8,110.4,9.8z M111.8,6.5c0-0.6-0.2-1.1-0.5-1.4c-0.3-0.4-0.8-0.5-1.3-0.5c-0.5,0-1,0.2-1.3,0.5c-0.4,0.4-0.6,0.8-0.6,1.4
		H111.8z"/>
	<path style="fill:#222222;" d="M114.2,4.2h0.6v1.1c0.4-0.8,1-1.2,1.8-1.2c0.3,0,0.5,0,0.6,0.1l-0.1,0.6c-0.2-0.1-0.4-0.1-0.6-0.1
		c-0.5,0-0.9,0.2-1.2,0.6c-0.3,0.4-0.4,1-0.4,1.7v2.6h-0.6V4.2z"/>
	<path style="fill:#222222;" d="M119.4,4.7h-1.1V4.2h1.1v-1c0-0.8,0.2-1.5,0.5-1.9c0.4-0.4,0.9-0.7,1.6-0.7c0.4,0,0.8,0.1,1.1,0.2
		l-0.1,0.6c-0.3-0.1-0.7-0.2-1-0.2c-0.5,0-0.9,0.2-1.1,0.5C120.2,2,120,2.5,120,3.2v0.9h1.8v0.6H120v4.8h-0.6V4.7z"/>
	<path style="fill:#222222;" d="M125.4,9.8c-0.5,0-1-0.1-1.4-0.4c-0.4-0.2-0.7-0.6-1-1c-0.2-0.4-0.4-0.9-0.4-1.5
		c0-0.5,0.1-1,0.3-1.4c0.2-0.4,0.6-0.8,1-1.1c0.4-0.3,0.9-0.4,1.4-0.4c0.5,0,0.9,0.1,1.3,0.3c0.4,0.2,0.7,0.5,0.9,0.9l0-1h0.6v5.4
		h-0.6l0-1c-0.2,0.4-0.5,0.7-0.9,0.9C126.3,9.7,125.9,9.8,125.4,9.8z M125.5,9.2c0.4,0,0.8-0.1,1.1-0.3s0.6-0.5,0.8-0.8
		c0.2-0.4,0.3-0.8,0.3-1.2c0-0.4-0.1-0.8-0.3-1.2c-0.2-0.4-0.4-0.6-0.8-0.8s-0.7-0.3-1.1-0.3c-0.4,0-0.7,0.1-1.1,0.3
		c-0.3,0.2-0.6,0.5-0.8,0.8c-0.2,0.4-0.3,0.8-0.3,1.2c0,0.4,0.1,0.8,0.3,1.2c0.2,0.3,0.4,0.6,0.7,0.8C124.7,9.1,125.1,9.2,125.5,9.2
		z"/>
	<path style="fill:#222222;" d="M132.9,9.8c-0.6,0-1.1-0.1-1.5-0.3c-0.4-0.2-0.8-0.6-1-1c-0.3-0.4-0.4-0.9-0.4-1.5
		c0-0.5,0.1-1,0.4-1.5c0.2-0.4,0.6-0.8,1-1c0.4-0.3,0.9-0.4,1.5-0.4c0.7,0,1.2,0.1,1.6,0.4L134.4,5c-0.2-0.1-0.5-0.2-0.7-0.3
		c-0.3-0.1-0.5-0.1-0.8-0.1c-0.4,0-0.8,0.1-1.1,0.3c-0.3,0.2-0.6,0.4-0.8,0.8c-0.2,0.3-0.3,0.7-0.3,1.2c0,0.7,0.2,1.3,0.6,1.7
		c0.4,0.4,1,0.6,1.6,0.6c0.6,0,1.1-0.1,1.6-0.4l0.1,0.5c-0.2,0.1-0.5,0.3-0.8,0.3C133.5,9.7,133.2,9.8,132.9,9.8z"/>
	<path style="fill:#222222;" d="M138.7,9.8c-0.9,0-1.6-0.3-2.1-0.8c-0.5-0.5-0.8-1.2-0.8-2.1c0-0.5,0.1-1,0.3-1.5
		c0.2-0.4,0.5-0.8,0.9-1.1c0.4-0.3,0.9-0.4,1.4-0.4c0.5,0,0.9,0.1,1.2,0.3c0.4,0.2,0.6,0.5,0.9,0.9c0.2,0.4,0.3,0.9,0.3,1.4
		c0,0.1,0,0.3,0,0.5h-4.4c0,0.7,0.3,1.2,0.7,1.6c0.4,0.4,1,0.6,1.7,0.6c0.7,0,1.3-0.2,1.8-0.5l0.1,0.6c-0.2,0.1-0.5,0.3-0.9,0.3
		S139,9.8,138.7,9.8z M140.1,6.5c0-0.6-0.2-1.1-0.5-1.4c-0.3-0.4-0.8-0.5-1.3-0.5c-0.5,0-1,0.2-1.3,0.5c-0.4,0.4-0.6,0.8-0.6,1.4
		H140.1z"/>
	<path style="fill:#222222;" d="M145.1,0h0.6v12.1h-0.6V0z"/>
	<path style="fill:#222222;" d="M154.6,9.7c-0.8,0-1.6-0.2-2.3-0.5c-0.7-0.3-1.2-0.8-1.6-1.5c-0.4-0.6-0.6-1.4-0.6-2.3
		c0-0.8,0.2-1.6,0.5-2.2c0.4-0.7,0.9-1.2,1.6-1.6c0.7-0.4,1.5-0.6,2.3-0.6c0.5,0,1,0.1,1.5,0.2c0.5,0.1,0.9,0.3,1.3,0.5l-0.1,0.6
		c-0.4-0.2-0.8-0.3-1.2-0.5c-0.5-0.1-0.9-0.2-1.4-0.2c-0.7,0-1.3,0.2-1.9,0.5c-0.6,0.3-1,0.7-1.3,1.3c-0.3,0.6-0.5,1.2-0.5,1.9
		c0,0.7,0.1,1.4,0.4,1.9c0.3,0.6,0.7,1,1.3,1.3c0.6,0.3,1.2,0.5,2,0.5c0.8,0,1.6-0.1,2.3-0.4V5.9h-2.1V5.3h2.8v3.8
		C156.7,9.5,155.7,9.7,154.6,9.7z"/>
	<path style="fill:#222222;" d="M159.6,4.2h0.6v1.1c0.4-0.8,1-1.2,1.8-1.2c0.3,0,0.5,0,0.6,0.1l-0.1,0.6c-0.2-0.1-0.4-0.1-0.6-0.1
		c-0.5,0-0.9,0.2-1.2,0.6c-0.3,0.4-0.4,1-0.4,1.7v2.6h-0.6V4.2z"/>
	<path style="fill:#222222;" d="M166.1,9.8c-0.5,0-1-0.1-1.4-0.4c-0.4-0.2-0.7-0.6-1-1s-0.4-0.9-0.4-1.5c0-0.5,0.1-1,0.3-1.4
		c0.2-0.4,0.6-0.8,1-1.1c0.4-0.3,0.9-0.4,1.4-0.4c0.5,0,0.9,0.1,1.3,0.3c0.4,0.2,0.7,0.5,0.9,0.9l0-1h0.6v5.4h-0.6l0-1
		c-0.2,0.4-0.5,0.7-0.9,0.9C167,9.7,166.6,9.8,166.1,9.8z M166.2,9.2c0.4,0,0.8-0.1,1.1-0.3s0.6-0.5,0.8-0.8
		c0.2-0.4,0.3-0.8,0.3-1.2c0-0.4-0.1-0.8-0.3-1.2c-0.2-0.4-0.4-0.6-0.8-0.8c-0.3-0.2-0.7-0.3-1.1-0.3c-0.4,0-0.7,0.1-1.1,0.3
		c-0.3,0.2-0.6,0.5-0.8,0.8c-0.2,0.4-0.3,0.8-0.3,1.2c0,0.4,0.1,0.8,0.3,1.2c0.2,0.3,0.4,0.6,0.7,0.8C165.4,9.1,165.8,9.2,166.2,9.2
		z"/>
	<path style="fill:#222222;" d="M171.1,4.2h0.6l0,1c0.2-0.4,0.5-0.7,0.9-0.9c0.4-0.2,0.8-0.3,1.3-0.3c0.5,0,1,0.1,1.4,0.4
		c0.4,0.2,0.7,0.6,1,1c0.2,0.4,0.4,0.9,0.4,1.5c0,0.5-0.1,1-0.3,1.4c-0.2,0.4-0.6,0.8-1,1.1c-0.4,0.3-0.9,0.4-1.4,0.4
		c-0.5,0-0.9-0.1-1.3-0.3c-0.4-0.2-0.7-0.5-0.9-0.9v3.7h-0.6V4.2z M173.8,9.2c0.4,0,0.7-0.1,1.1-0.3c0.3-0.2,0.6-0.5,0.8-0.8
		c0.2-0.4,0.3-0.8,0.3-1.2c0-0.4-0.1-0.8-0.3-1.2c-0.2-0.3-0.4-0.6-0.7-0.8c-0.3-0.2-0.7-0.3-1.1-0.3c-0.4,0-0.8,0.1-1.1,0.3
		c-0.3,0.2-0.6,0.5-0.8,0.8c-0.2,0.4-0.3,0.8-0.3,1.2c0,0.4,0.1,0.8,0.3,1.2c0.2,0.4,0.4,0.6,0.8,0.8C173,9.1,173.4,9.2,173.8,9.2z"
		/>
	<path style="fill:#222222;" d="M178.3,0.6h0.6V5c0.2-0.3,0.5-0.6,0.8-0.8c0.3-0.2,0.7-0.3,1.1-0.3c0.6,0,1.1,0.2,1.5,0.6
		c0.4,0.4,0.5,1,0.5,1.7v3.3h-0.6V6.4c0-1.2-0.5-1.8-1.5-1.8c-0.5,0-1,0.2-1.3,0.6C179.1,5.5,179,6,179,6.6v2.9h-0.6V0.6z"/>
	<path style="fill:#222222;" d="M185.3,2.5c-0.1,0-0.3,0-0.3-0.1c-0.1-0.1-0.1-0.2-0.1-0.3c0-0.1,0-0.3,0.1-0.3
		c0.1-0.1,0.2-0.1,0.3-0.1s0.3,0,0.3,0.1c0.1,0.1,0.1,0.2,0.1,0.3c0,0.1,0,0.3-0.1,0.3C185.6,2.5,185.5,2.5,185.3,2.5z M185,4.2h0.6
		v5.4H185V4.2z"/>
	<path style="fill:#222222;" d="M190.3,9.8c-0.6,0-1.1-0.1-1.5-0.3c-0.4-0.2-0.8-0.6-1-1c-0.3-0.4-0.4-0.9-0.4-1.5
		c0-0.5,0.1-1,0.4-1.5c0.2-0.4,0.6-0.8,1-1c0.4-0.3,0.9-0.4,1.5-0.4c0.7,0,1.2,0.1,1.6,0.4L191.8,5c-0.2-0.1-0.5-0.2-0.7-0.3
		c-0.3-0.1-0.5-0.1-0.8-0.1c-0.4,0-0.8,0.1-1.1,0.3c-0.3,0.2-0.6,0.4-0.8,0.8C188.1,6,188,6.4,188,6.9c0,0.7,0.2,1.3,0.6,1.7
		c0.4,0.4,1,0.6,1.6,0.6c0.6,0,1.1-0.1,1.6-0.4l0.1,0.5c-0.2,0.1-0.5,0.3-0.8,0.3C190.9,9.7,190.6,9.8,190.3,9.8z"/>
</g>
</svg>
